<?xml version="1.0" standalone="no"?>
<!DOCTYPE svg PUBLIC "-//W3C//DTD SVG 1.1//EN" "http://www.w3.org/Graphics/SVG/1.1/DTD/svg11.dtd" >
<svg>
<metadata>
Created by FontForge 20110222 at Mon Mar  7 08:05:23 2011
 By www-data
Neko/MIFFIES
</metadata>
<defs>
<font id="M42_FLIGHT-721" horiz-adv-x="512" >
  <font-face 
    font-family="M42_FLIGHT 721"
    font-weight="400"
    font-stretch="normal"
    units-per-em="1024"
    panose-1="2 11 6 0 0 0 0 0 0 0"
    ascent="819"
    descent="-205"
    x-height="1024"
    cap-height="1024"
    bbox="0 -128 1920 1024"
    underline-thickness="48"
    underline-position="-72"
    unicode-range="U+0020-2122"
  />
    <missing-glyph />
    <glyph glyph-name="space" unicode=" " horiz-adv-x="768" 
 />
    <glyph glyph-name="exclam" unicode="!" 
d="M0 384v640h384v-640h-384zM0 0v256h384v-256h-384z" />
    <glyph glyph-name="quotedbl" unicode="&#x22;" horiz-adv-x="768" 
d="M0 640v384h256v-384h-256zM384 640v384h256v-384h-256z" />
    <glyph glyph-name="numbersign" unicode="#" horiz-adv-x="1152" 
d="M128 0v128h-128v256h128v256h-128v256h128v128h256v-128h256v128h256v-128h128v-256h-128v-256h128v-256h-128v-128h-256v128h-256v-128h-256zM384 640v-256h256v256h-256z" />
    <glyph glyph-name="dollar" unicode="$" horiz-adv-x="1152" 
d="M0 0v256h384v128h-256v128h-128v384h128v128h896v-256h-384v-128h256v-128h128v-384h-128v-128h-896zM768 256v128h-128v-128h128zM256 768v-128h128v128h-128z" />
    <glyph glyph-name="percent" unicode="%" horiz-adv-x="1408" 
d="M128 0v256h128v128h-128v128h-128v384h128v128h384v-128h128v-128h128v128h128v128h256v-256h-128v-128h128v-128h128v-384h-128v-128h-384v128h-128v128h-128v-128h-128v-128h-256zM256 768v-128h128v128h-128zM896 256h128v128h-128v-128z" />
    <glyph glyph-name="ampersand" unicode="&#x26;" horiz-adv-x="1536" 
d="M128 0v128h-128v384h128v384h128v128h768v-128h128v-256h-384v128h-256v-128h256v-128h512v-256h128v-256h-384v128h-128v-128h-768zM384 256h128v128h-128v-128z" />
    <glyph glyph-name="quotesingle" unicode="'" horiz-adv-x="384" 
d="M0 640v384h256v-384h-256z" />
    <glyph glyph-name="parenleft" unicode="(" horiz-adv-x="640" 
d="M128 0v128h-128v768h128v128h384v-256h-256v-512h256v-256h-384z" />
    <glyph glyph-name="parenright" unicode=")" horiz-adv-x="640" 
d="M384 0h-384v256h256v512h-256v256h384v-128h128v-768h-128v-128z" />
    <glyph glyph-name="asterisk" unicode="*" horiz-adv-x="1152" 
d="M0 128v256h128v256h-128v256h256v-128h128v256h256v-256h128v128h256v-256h-128v-256h128v-256h-256v128h-128v-256h-256v256h-128v-128h-256z" />
    <glyph glyph-name="plus" unicode="+" horiz-adv-x="1152" 
d="M384 0v384h-384v256h384v384h256v-384h384v-256h-384v-384h-256z" />
    <glyph glyph-name="comma" unicode="," horiz-adv-x="384" 
d="M0 0v256h256v-384h-128v128h-128z" />
    <glyph glyph-name="hyphen" unicode="-" horiz-adv-x="1152" 
d="M0 384v256h1024v-256h-1024z" />
    <glyph glyph-name="period" unicode="." horiz-adv-x="384" 
d="M0 0v256h256v-256h-256z" />
    <glyph glyph-name="slash" unicode="/" horiz-adv-x="768" 
d="M0 0v256h128v256h128v256h128v256h256v-256h-128v-256h-128v-256h-128v-256h-256z" />
    <glyph glyph-name="zero" unicode="0" horiz-adv-x="1408" 
d="M128 0v128h-128v768h128v128h1024v-128h128v-768h-128v-128h-1024zM896 768h-512v-512h512v512z" />
    <glyph glyph-name="one" unicode="1" horiz-adv-x="768" 
d="M0 512v256h128v128h128v128h384v-1024h-384v512h-256z" />
    <glyph glyph-name="two" unicode="2" horiz-adv-x="1408" 
d="M0 0v512h128v128h768v128h-896v256h1152v-128h128v-384h-128v-128h-768v-128h896v-256h-1280z" />
    <glyph glyph-name="three" unicode="3" horiz-adv-x="1408" 
d="M128 0v128h-128v256h384v-128h512v128h-384v256h384v128h-512v-128h-384v256h128v128h1024v-128h128v-256h-128v-128h128v-384h-128v-128h-1024z" />
    <glyph glyph-name="four" unicode="4" horiz-adv-x="1408" 
d="M0 128v384h128v128h128v128h128v128h128v128h640v-640h128v-256h-128v-128h-384v128h-768zM768 384v256h-128v-128h-128v-128h256z" />
    <glyph glyph-name="five" unicode="5" horiz-adv-x="1408" 
d="M0 1024h1280v-256h-896v-128h768v-128h128v-384h-128v-128h-1152v256h896v128h-896v640z" />
    <glyph glyph-name="six" unicode="6" horiz-adv-x="1408" 
d="M128 0v128h-128v768h128v128h1152v-256h-896v-128h768v-128h128v-384h-128v-128h-1024zM384 256h512v128h-512v-128z" />
    <glyph glyph-name="seven" unicode="7" horiz-adv-x="1408" 
d="M0 768v256h1280v-384h-128v-128h-128v-128h-128v-128h-128v-128h-128v-128h-384v256h128v128h128v128h128v128h128v128h-768z" />
    <glyph glyph-name="eight" unicode="8" horiz-adv-x="1408" 
d="M128 0v128h-128v384h128v128h-128v256h128v128h1024v-128h128v-256h-128v-128h128v-384h-128v-128h-1024zM384 256h512v128h-512v-128zM896 640v128h-512v-128h512z" />
    <glyph glyph-name="nine" unicode="9" horiz-adv-x="1408" 
d="M1152 1024v-128h128v-768h-128v-128h-1152v256h896v128h-768v128h-128v384h128v128h1024zM896 768h-512v-128h512v128z" />
    <glyph glyph-name="colon" unicode=":" horiz-adv-x="384" 
d="M0 640v256h256v-256h-256zM0 128v256h256v-256h-256z" />
    <glyph glyph-name="semicolon" unicode=";" horiz-adv-x="384" 
d="M0 640v256h256v-256h-256zM0 128v256h256v-384h-128v128h-128z" />
    <glyph glyph-name="less" unicode="&#x3c;" horiz-adv-x="768" 
d="M384 0v128h-128v128h-128v128h-128v256h128v128h128v128h128v128h256v-256h-128v-128h-128v-256h128v-128h128v-256h-256z" />
    <glyph glyph-name="equal" unicode="=" horiz-adv-x="1152" 
d="M0 128v256h1024v-256h-1024zM0 640v256h1024v-256h-1024z" />
    <glyph glyph-name="greater" unicode="&#x3e;" horiz-adv-x="768" 
d="M256 0h-256v256h128v128h128v256h-128v128h-128v256h256v-128h128v-128h128v-128h128v-256h-128v-128h-128v-128h-128v-128z" />
    <glyph glyph-name="question" unicode="?" horiz-adv-x="1408" 
d="M0 640v256h128v128h1024v-128h128v-384h-128v-128h-640v256h384v128h-512v-128h-384zM512 0v256h384v-256h-384z" />
    <glyph glyph-name="at" unicode="@" horiz-adv-x="1280" 
d="M256 -128v128h-128v128h-128v640h128v128h128v128h640v-128h128v-128h128v-640h-256v256h-256v-256h256v-256h-640zM256 256h128v256h128v128h256v128h-384v-128h-128v-384z" />
    <glyph glyph-name="A" unicode="A" horiz-adv-x="1536" 
d="M0 0v256h128v256h128v256h128v256h640v-256h128v-256h128v-256h128v-256h-384v128h-640v-128h-384zM640 768v-256h-128v-128h384v128h-128v256h-128z" />
    <glyph glyph-name="B" unicode="B" horiz-adv-x="1536" 
d="M0 0v1024h1280v-128h128v-256h-128v-128h128v-384h-128v-128h-1280zM384 768v-128h640v128h-640zM384 384v-128h640v128h-640z" />
    <glyph glyph-name="C" unicode="C" horiz-adv-x="1536" 
d="M128 0v128h-128v768h128v128h1152v-128h128v-256h-384v128h-640v-512h640v128h384v-256h-128v-128h-1152z" />
    <glyph glyph-name="D" unicode="D" horiz-adv-x="1536" 
d="M0 0v1024h1280v-128h128v-768h-128v-128h-1280zM1024 768h-640v-512h640v512z" />
    <glyph glyph-name="E" unicode="E" horiz-adv-x="1536" 
d="M0 0v1024h1408v-256h-1024v-128h896v-256h-896v-128h1024v-256h-1408z" />
    <glyph glyph-name="F" unicode="F" horiz-adv-x="1536" 
d="M0 0v1024h1408v-256h-1024v-128h896v-256h-896v-384h-384z" />
    <glyph glyph-name="G" unicode="G" horiz-adv-x="1536" 
d="M128 0v128h-128v768h128v128h1280v-256h-1024v-512h640v128h-384v256h768v-512h-128v-128h-1152z" />
    <glyph glyph-name="H" unicode="H" horiz-adv-x="1536" 
d="M0 0v1024h384v-384h640v384h384v-1024h-384v384h-640v-384h-384z" />
    <glyph glyph-name="I" unicode="I" 
d="M0 0v1024h384v-1024h-384z" />
    <glyph glyph-name="J" unicode="J" horiz-adv-x="1536" 
d="M1280 0h-1152v128h-128v384h384v-256h640v768h384v-896h-128v-128z" />
    <glyph glyph-name="K" unicode="K" horiz-adv-x="1536" 
d="M0 0v1024h384v-384h128v128h256v128h256v128h384v-256h-256v-128h-256v-256h256v-128h256v-256h-384v128h-256v128h-256v128h-128v-384h-384z" />
    <glyph glyph-name="L" unicode="L" horiz-adv-x="1536" 
d="M0 0v1024h384v-768h1024v-256h-1408z" />
    <glyph glyph-name="M" unicode="M" horiz-adv-x="1792" 
d="M0 0h384v512h128v-256h128v-256h384v256h128v256h128v-512h384v1024h-640v-256h-128v-256h-128v256h-128v256h-640v-1024z" />
    <glyph glyph-name="N" unicode="N" horiz-adv-x="1536" 
d="M0 0v1024h512v-128h128v-128h128v-128h128v-128h128v512h384v-1024h-512v128h-128v128h-128v128h-128v128h-128v-512h-384z" />
    <glyph glyph-name="O" unicode="O" horiz-adv-x="1536" 
d="M128 0v128h-128v768h128v128h1152v-128h128v-768h-128v-128h-1152zM1024 768h-640v-512h640v512z" />
    <glyph glyph-name="P" unicode="P" horiz-adv-x="1536" 
d="M0 0h384v256h896v128h128v512h-128v128h-1280v-1024zM384 512v256h640v-256h-640z" />
    <glyph glyph-name="Q" unicode="Q" horiz-adv-x="1664" 
d="M128 0v128h-128v768h128v128h1152v-128h128v-640h128v-256h-1408zM1024 768h-640v-512h384v256h256v256z" />
    <glyph glyph-name="R" unicode="R" horiz-adv-x="1536" 
d="M0 0v1024h1280v-128h128v-512h-128v-128h128v-256h-384v256h-640v-256h-384zM384 512h640v256h-640v-256z" />
    <glyph glyph-name="S" unicode="S" horiz-adv-x="1536" 
d="M0 0v256h1024v128h-896v128h-128v384h128v128h1280v-256h-1024v-128h896v-128h128v-384h-128v-128h-1280z" />
    <glyph glyph-name="T" unicode="T" horiz-adv-x="1536" 
d="M0 768v256h1408v-256h-512v-768h-384v768h-512z" />
    <glyph glyph-name="U" unicode="U" horiz-adv-x="1536" 
d="M128 0v128h-128v896h384v-768h640v768h384v-896h-128v-128h-1152z" />
    <glyph glyph-name="V" unicode="V" horiz-adv-x="1536" 
d="M0 768v256h384v-256h128v-256h128v-256h128v256h128v256h128v256h384v-256h-128v-256h-128v-256h-128v-256h-640v256h-128v256h-128v256h-128z" />
    <glyph glyph-name="W" unicode="W" horiz-adv-x="2048" 
d="M0 768v256h384v-256h128v-256h128v256h128v256h384v-256h128v-256h128v256h128v256h384v-256h-128v-256h-128v-256h-128v-256h-384v256h-128v256h-128v-256h-128v-256h-384v256h-128v256h-128v256h-128z" />
    <glyph glyph-name="X" unicode="X" horiz-adv-x="1536" 
d="M0 0v256h128v128h128v256h-128v128h-128v256h384v-128h128v-128h128v-128h128v128h128v128h128v128h384v-256h-128v-128h-128v-256h128v-128h128v-256h-384v128h-128v128h-128v128h-128v-128h-128v-128h-128v-128h-384z" />
    <glyph glyph-name="Y" unicode="Y" horiz-adv-x="1536" 
d="M0 768v256h384v-128h128v-128h128v-128h128v128h128v128h128v128h384v-256h-128v-128h-128v-128h-128v-128h-128v-384h-384v384h-128v128h-128v128h-128v128h-128z" />
    <glyph glyph-name="Z" unicode="Z" horiz-adv-x="1536" 
d="M0 0v384h256v128h256v128h256v128h-768v256h1408v-384h-256v-128h-256v-128h-256v-128h768v-256h-1408z" />
    <glyph glyph-name="bracketleft" unicode="[" horiz-adv-x="640" 
d="M0 0v1024h512v-256h-256v-512h256v-256h-512z" />
    <glyph glyph-name="backslash" unicode="\" horiz-adv-x="768" 
d="M640 0h-256v256h-128v256h-128v256h-128v256h256v-256h128v-256h128v-256h128v-256z" />
    <glyph glyph-name="bracketright" unicode="]" horiz-adv-x="640" 
d="M512 0h-512v256h256v512h-256v256h512v-1024z" />
    <glyph glyph-name="asciicircum" unicode="^" horiz-adv-x="896" 
d="M0 512v256h128v128h128v128h256v-128h128v-128h128v-256h-256v128h-256v-128h-256z" />
    <glyph glyph-name="underscore" unicode="_" horiz-adv-x="896" 
d="M0 -128v256h768v-256h-768z" />
    <glyph glyph-name="grave" unicode="`" 
d="M0 768v256h256v-128h128v-256h-256v128h-128z" />
    <glyph glyph-name="a" unicode="a" horiz-adv-x="1536" 
d="M0 0v256h128v256h128v256h128v256h640v-256h128v-256h128v-256h128v-256h-384v128h-640v-128h-384zM640 768v-256h-128v-128h384v128h-128v256h-128z" />
    <glyph glyph-name="b" unicode="b" horiz-adv-x="1536" 
d="M0 0v1024h1280v-128h128v-256h-128v-128h128v-384h-128v-128h-1280zM384 768v-128h640v128h-640zM384 384v-128h640v128h-640z" />
    <glyph glyph-name="c" unicode="c" horiz-adv-x="1536" 
d="M128 0v128h-128v768h128v128h1152v-128h128v-256h-384v128h-640v-512h640v128h384v-256h-128v-128h-1152z" />
    <glyph glyph-name="d" unicode="d" horiz-adv-x="1536" 
d="M0 0v1024h1280v-128h128v-768h-128v-128h-1280zM1024 768h-640v-512h640v512z" />
    <glyph glyph-name="e" unicode="e" horiz-adv-x="1536" 
d="M0 0v1024h1408v-256h-1024v-128h896v-256h-896v-128h1024v-256h-1408z" />
    <glyph glyph-name="f" unicode="f" horiz-adv-x="1536" 
d="M0 0v1024h1408v-256h-1024v-128h896v-256h-896v-384h-384z" />
    <glyph glyph-name="g" unicode="g" horiz-adv-x="1536" 
d="M128 0v128h-128v768h128v128h1280v-256h-1024v-512h640v128h-384v256h768v-512h-128v-128h-1152z" />
    <glyph glyph-name="h" unicode="h" horiz-adv-x="1536" 
d="M0 0v1024h384v-384h640v384h384v-1024h-384v384h-640v-384h-384z" />
    <glyph glyph-name="i" unicode="i" 
d="M0 0v1024h384v-1024h-384z" />
    <glyph glyph-name="j" unicode="j" horiz-adv-x="1536" 
d="M1280 0h-1152v128h-128v384h384v-256h640v768h384v-896h-128v-128z" />
    <glyph glyph-name="k" unicode="k" horiz-adv-x="1536" 
d="M0 0v1024h384v-384h128v128h256v128h256v128h384v-256h-256v-128h-256v-256h256v-128h256v-256h-384v128h-256v128h-256v128h-128v-384h-384z" />
    <glyph glyph-name="l" unicode="l" horiz-adv-x="1536" 
d="M0 0v1024h384v-768h1024v-256h-1408z" />
    <glyph glyph-name="m" unicode="m" horiz-adv-x="1792" 
d="M0 0h384v512h128v-256h128v-256h384v256h128v256h128v-512h384v1024h-640v-256h-128v-256h-128v256h-128v256h-640v-1024z" />
    <glyph glyph-name="n" unicode="n" horiz-adv-x="1536" 
d="M0 0v1024h512v-128h128v-128h128v-128h128v-128h128v512h384v-1024h-512v128h-128v128h-128v128h-128v128h-128v-512h-384z" />
    <glyph glyph-name="o" unicode="o" horiz-adv-x="1536" 
d="M128 0v128h-128v768h128v128h1152v-128h128v-768h-128v-128h-1152zM1024 768h-640v-512h640v512z" />
    <glyph glyph-name="p" unicode="p" horiz-adv-x="1536" 
d="M0 0h384v256h896v128h128v512h-128v128h-1280v-1024zM384 512v256h640v-256h-640z" />
    <glyph glyph-name="q" unicode="q" horiz-adv-x="1664" 
d="M128 0v128h-128v768h128v128h1152v-128h128v-640h128v-256h-1408zM1024 768h-640v-512h384v256h256v256z" />
    <glyph glyph-name="r" unicode="r" horiz-adv-x="1536" 
d="M0 0v1024h1280v-128h128v-512h-128v-128h128v-256h-384v256h-640v-256h-384zM384 512h640v256h-640v-256z" />
    <glyph glyph-name="s" unicode="s" horiz-adv-x="1536" 
d="M0 0v256h1024v128h-896v128h-128v384h128v128h1280v-256h-1024v-128h896v-128h128v-384h-128v-128h-1280z" />
    <glyph glyph-name="t" unicode="t" horiz-adv-x="1536" 
d="M0 768v256h1408v-256h-512v-768h-384v768h-512z" />
    <glyph glyph-name="u" unicode="u" horiz-adv-x="1536" 
d="M128 0v128h-128v896h384v-768h640v768h384v-896h-128v-128h-1152z" />
    <glyph glyph-name="v" unicode="v" horiz-adv-x="1536" 
d="M0 768v256h384v-256h128v-256h128v-256h128v256h128v256h128v256h384v-256h-128v-256h-128v-256h-128v-256h-640v256h-128v256h-128v256h-128z" />
    <glyph glyph-name="w" unicode="w" horiz-adv-x="2048" 
d="M0 768v256h384v-256h128v-256h128v256h128v256h384v-256h128v-256h128v256h128v256h384v-256h-128v-256h-128v-256h-128v-256h-384v256h-128v256h-128v-256h-128v-256h-384v256h-128v256h-128v256h-128z" />
    <glyph glyph-name="x" unicode="x" horiz-adv-x="1536" 
d="M0 0v256h128v128h128v256h-128v128h-128v256h384v-128h128v-128h128v-128h128v128h128v128h128v128h384v-256h-128v-128h-128v-256h128v-128h128v-256h-384v128h-128v128h-128v128h-128v-128h-128v-128h-128v-128h-384z" />
    <glyph glyph-name="y" unicode="y" horiz-adv-x="1536" 
d="M0 768v256h384v-128h128v-128h128v-128h128v128h128v128h128v128h384v-256h-128v-128h-128v-128h-128v-128h-128v-384h-384v384h-128v128h-128v128h-128v128h-128z" />
    <glyph glyph-name="z" unicode="z" horiz-adv-x="1536" 
d="M0 0v384h256v128h256v128h256v128h-768v256h1408v-384h-256v-128h-256v-128h-256v-128h768v-256h-1408z" />
    <glyph glyph-name="braceleft" unicode="{" horiz-adv-x="640" 
d="M256 -128v128h-128v384h-128v128h128v384h128v128h256v-256h-128v-256h-128v-128h128v-256h128v-256h-256z" />
    <glyph glyph-name="bar" unicode="|" horiz-adv-x="384" 
d="M0 0v1024h256v-1024h-256z" />
    <glyph glyph-name="braceright" unicode="}" horiz-adv-x="640" 
d="M256 -128h-256v256h128v256h128v128h-128v256h-128v256h256v-128h128v-384h128v-128h-128v-384h-128v-128z" />
    <glyph glyph-name="asciitilde" unicode="~" horiz-adv-x="1024" 
d="M128 768v-128h-128v-256h256v128h128v-128h384v128h128v256h-256v-128h-128v128h-384z" />
    <glyph glyph-name="uni00A0" unicode="&#xa0;" 
 />
    <glyph glyph-name="exclamdown" unicode="&#xa1;" 
 />
    <glyph glyph-name="cent" unicode="&#xa2;" 
 />
    <glyph glyph-name="sterling" unicode="&#xa3;" 
 />
    <glyph glyph-name="currency" unicode="&#xa4;" 
 />
    <glyph glyph-name="yen" unicode="&#xa5;" 
 />
    <glyph glyph-name="brokenbar" unicode="&#xa6;" 
 />
    <glyph glyph-name="section" unicode="&#xa7;" 
 />
    <glyph glyph-name="dieresis" unicode="&#xa8;" 
 />
    <glyph glyph-name="copyright" unicode="&#xa9;" 
 />
    <glyph glyph-name="ordfeminine" unicode="&#xaa;" 
 />
    <glyph glyph-name="guillemotleft" unicode="&#xab;" 
 />
    <glyph glyph-name="logicalnot" unicode="&#xac;" 
 />
    <glyph glyph-name="uni00AD" unicode="&#xad;" 
 />
    <glyph glyph-name="registered" unicode="&#xae;" 
 />
    <glyph glyph-name="macron" unicode="&#xaf;" 
 />
    <glyph glyph-name="degree" unicode="&#xb0;" 
 />
    <glyph glyph-name="plusminus" unicode="&#xb1;" 
 />
    <glyph glyph-name="uni00B2" unicode="&#xb2;" 
 />
    <glyph glyph-name="uni00B3" unicode="&#xb3;" 
 />
    <glyph glyph-name="acute" unicode="&#xb4;" 
 />
    <glyph glyph-name="uni00B5" unicode="&#xb5;" 
 />
    <glyph glyph-name="paragraph" unicode="&#xb6;" 
 />
    <glyph glyph-name="periodcentered" unicode="&#xb7;" 
 />
    <glyph glyph-name="cedilla" unicode="&#xb8;" 
 />
    <glyph glyph-name="uni00B9" unicode="&#xb9;" 
 />
    <glyph glyph-name="ordmasculine" unicode="&#xba;" 
 />
    <glyph glyph-name="guillemotright" unicode="&#xbb;" 
 />
    <glyph glyph-name="onequarter" unicode="&#xbc;" 
 />
    <glyph glyph-name="onehalf" unicode="&#xbd;" 
 />
    <glyph glyph-name="threequarters" unicode="&#xbe;" 
 />
    <glyph glyph-name="questiondown" unicode="&#xbf;" 
 />
    <glyph glyph-name="Agrave" unicode="&#xc0;" 
 />
    <glyph glyph-name="Aacute" unicode="&#xc1;" 
 />
    <glyph glyph-name="Acircumflex" unicode="&#xc2;" 
 />
    <glyph glyph-name="Atilde" unicode="&#xc3;" 
 />
    <glyph glyph-name="Adieresis" unicode="&#xc4;" 
 />
    <glyph glyph-name="Aring" unicode="&#xc5;" 
 />
    <glyph glyph-name="AE" unicode="&#xc6;" 
 />
    <glyph glyph-name="Ccedilla" unicode="&#xc7;" 
 />
    <glyph glyph-name="Egrave" unicode="&#xc8;" 
 />
    <glyph glyph-name="Eacute" unicode="&#xc9;" 
 />
    <glyph glyph-name="Ecircumflex" unicode="&#xca;" 
 />
    <glyph glyph-name="Edieresis" unicode="&#xcb;" 
 />
    <glyph glyph-name="Igrave" unicode="&#xcc;" 
 />
    <glyph glyph-name="Iacute" unicode="&#xcd;" 
 />
    <glyph glyph-name="Icircumflex" unicode="&#xce;" 
 />
    <glyph glyph-name="Idieresis" unicode="&#xcf;" 
 />
    <glyph glyph-name="Eth" unicode="&#xd0;" 
 />
    <glyph glyph-name="Ntilde" unicode="&#xd1;" 
 />
    <glyph glyph-name="Ograve" unicode="&#xd2;" 
 />
    <glyph glyph-name="Oacute" unicode="&#xd3;" 
 />
    <glyph glyph-name="Ocircumflex" unicode="&#xd4;" 
 />
    <glyph glyph-name="Otilde" unicode="&#xd5;" 
 />
    <glyph glyph-name="Odieresis" unicode="&#xd6;" 
 />
    <glyph glyph-name="multiply" unicode="&#xd7;" 
 />
    <glyph glyph-name="Oslash" unicode="&#xd8;" 
 />
    <glyph glyph-name="Ugrave" unicode="&#xd9;" 
 />
    <glyph glyph-name="Uacute" unicode="&#xda;" 
 />
    <glyph glyph-name="Ucircumflex" unicode="&#xdb;" 
 />
    <glyph glyph-name="Udieresis" unicode="&#xdc;" 
 />
    <glyph glyph-name="Yacute" unicode="&#xdd;" 
 />
    <glyph glyph-name="Thorn" unicode="&#xde;" 
 />
    <glyph glyph-name="germandbls" unicode="&#xdf;" 
 />
    <glyph glyph-name="agrave" unicode="&#xe0;" 
 />
    <glyph glyph-name="aacute" unicode="&#xe1;" 
 />
    <glyph glyph-name="acircumflex" unicode="&#xe2;" 
 />
    <glyph glyph-name="atilde" unicode="&#xe3;" 
 />
    <glyph glyph-name="adieresis" unicode="&#xe4;" 
 />
    <glyph glyph-name="aring" unicode="&#xe5;" 
 />
    <glyph glyph-name="ae" unicode="&#xe6;" 
 />
    <glyph glyph-name="ccedilla" unicode="&#xe7;" 
 />
    <glyph glyph-name="egrave" unicode="&#xe8;" 
 />
    <glyph glyph-name="eacute" unicode="&#xe9;" 
 />
    <glyph glyph-name="ecircumflex" unicode="&#xea;" 
 />
    <glyph glyph-name="edieresis" unicode="&#xeb;" 
 />
    <glyph glyph-name="igrave" unicode="&#xec;" 
 />
    <glyph glyph-name="iacute" unicode="&#xed;" 
 />
    <glyph glyph-name="icircumflex" unicode="&#xee;" 
 />
    <glyph glyph-name="idieresis" unicode="&#xef;" 
 />
    <glyph glyph-name="eth" unicode="&#xf0;" 
 />
    <glyph glyph-name="ntilde" unicode="&#xf1;" 
 />
    <glyph glyph-name="ograve" unicode="&#xf2;" 
 />
    <glyph glyph-name="oacute" unicode="&#xf3;" 
 />
    <glyph glyph-name="ocircumflex" unicode="&#xf4;" 
 />
    <glyph glyph-name="otilde" unicode="&#xf5;" 
 />
    <glyph glyph-name="odieresis" unicode="&#xf6;" 
 />
    <glyph glyph-name="divide" unicode="&#xf7;" 
 />
    <glyph glyph-name="oslash" unicode="&#xf8;" 
 />
    <glyph glyph-name="ugrave" unicode="&#xf9;" 
 />
    <glyph glyph-name="uacute" unicode="&#xfa;" 
 />
    <glyph glyph-name="ucircumflex" unicode="&#xfb;" 
 />
    <glyph glyph-name="udieresis" unicode="&#xfc;" 
 />
    <glyph glyph-name="yacute" unicode="&#xfd;" 
 />
    <glyph glyph-name="thorn" unicode="&#xfe;" 
 />
    <glyph glyph-name="ydieresis" unicode="&#xff;" 
 />
    <glyph glyph-name="OE" unicode="&#x152;" 
 />
    <glyph glyph-name="oe" unicode="&#x153;" 
 />
    <glyph glyph-name="Scaron" unicode="&#x160;" 
 />
    <glyph glyph-name="scaron" unicode="&#x161;" 
 />
    <glyph glyph-name="Ydieresis" unicode="&#x178;" 
 />
    <glyph glyph-name="Zcaron" unicode="&#x17d;" 
 />
    <glyph glyph-name="zcaron" unicode="&#x17e;" 
 />
    <glyph glyph-name="florin" unicode="&#x192;" 
 />
    <glyph glyph-name="circumflex" unicode="&#x2c6;" 
 />
    <glyph glyph-name="tilde" unicode="&#x2dc;" 
 />
    <glyph glyph-name="endash" unicode="&#x2013;" 
 />
    <glyph glyph-name="emdash" unicode="&#x2014;" 
 />
    <glyph glyph-name="quoteleft" unicode="&#x2018;" 
 />
    <glyph glyph-name="quoteright" unicode="&#x2019;" 
 />
    <glyph glyph-name="quotesinglbase" unicode="&#x201a;" 
 />
    <glyph glyph-name="quotedblleft" unicode="&#x201c;" 
 />
    <glyph glyph-name="quotedblright" unicode="&#x201d;" 
 />
    <glyph glyph-name="quotedblbase" unicode="&#x201e;" 
 />
    <glyph glyph-name="dagger" unicode="&#x2020;" 
 />
    <glyph glyph-name="daggerdbl" unicode="&#x2021;" 
 />
    <glyph glyph-name="bullet" unicode="&#x2022;" 
 />
    <glyph glyph-name="ellipsis" unicode="&#x2026;" 
 />
    <glyph glyph-name="perthousand" unicode="&#x2030;" 
 />
    <glyph glyph-name="guilsinglleft" unicode="&#x2039;" 
 />
    <glyph glyph-name="guilsinglright" unicode="&#x203a;" 
 />
    <glyph glyph-name="Euro" unicode="&#x20ac;" 
 />
    <glyph glyph-name="trademark" unicode="&#x2122;" 
 />
  </font>
</defs>
</svg>
